<svg xmlns="http://www.w3.org/2000/svg" width="512" height="512" viewBox="0 0 512 512" version="1.1">
	<path d="M 206 18.109 C 200.775 18.554, 187.058 18.976, 175.519 19.047 C 156.738 19.164, 153.548 19.434, 145.104 21.628 C 125.747 26.657, 113.144 33.525, 101.500 45.388 C 94.270 52.754, 80.847 71.200, 73.730 83.550 C 69.808 90.357, 69.350 90.766, 60.433 95.404 C 50.508 100.566, 34.806 111.880, 31.753 116.068 C 29.976 118.506, 29.941 119.608, 31.067 137.835 C 31.998 152.901, 31.990 158.375, 31.026 163.267 C 30.187 167.527, 29.811 181.097, 29.837 206.147 L 29.874 242.794 33.035 255.647 C 36.259 268.759, 40.921 281.765, 46.244 292.500 C 53.629 307.393, 58.918 313.555, 92.440 346.328 C 126.026 379.162, 135.513 387.828, 147.509 396.630 C 158.032 404.352, 163.437 406.649, 181.581 411.109 L 198.164 415.185 239.332 414.735 C 283.392 414.254, 290.547 413.617, 309.990 408.449 C 326.651 404.021, 333.893 399.788, 347.539 386.501 C 355.852 378.408, 363.618 372.077, 373 365.747 C 380.425 360.737, 387.795 355.144, 389.377 353.319 C 391.769 350.560, 392.952 350, 396.388 350 C 401.250 350, 414.057 344.711, 420.870 339.890 C 436.192 329.047, 456.870 309.916, 462.602 301.281 C 464.581 298.298, 467.043 293.462, 468.073 290.534 C 470.974 282.278, 474.240 255.279, 473.831 242.929 L 473.481 232.358 468.742 224.429 C 460.737 211.034, 451.073 191.323, 447.782 181.678 C 445.420 174.753, 444.633 170.645, 444.576 164.943 C 444.502 157.624, 444.694 156.996, 450.693 144.943 C 454.099 138.099, 457.600 129.800, 458.471 126.500 C 461.788 113.946, 461.499 93.197, 457.798 78.197 C 456.579 73.258, 450.644 66.739, 443.615 62.620 C 438.322 59.518, 406.862 46.835, 399 44.633 C 391.378 42.499, 383.868 41.289, 367 39.476 C 359.025 38.619, 342.753 36.366, 330.840 34.471 C 302.627 29.981, 290.875 29.015, 264.816 29.043 C 244.618 29.065, 242.832 28.914, 235.406 26.566 C 231.058 25.191, 225.025 22.487, 222 20.558 C 218.975 18.629, 216.275 17.107, 216 17.176 C 215.725 17.245, 211.225 17.665, 206 18.109" stroke="none" fill="black" fill-rule="evenodd"/>
</svg>